<svg xmlns="http://www.w3.org/2000/svg" id="prefix__download_bg_parttern_2" width="1314" height="332.998" viewBox="0 0 1314 332.998">
    <defs>
        <style>
            .prefix__cls-4{fill:#cced0c}.prefix__cls-5{fill:#05b66b}.prefix__cls-6{fill:#7167ff}
        </style>
    </defs>
    <path id="prefix__패스_8000" fill="#fccf22" d="M-1.778 0H6L3.778 7.778H-4z" data-name="패스 8000" transform="translate(238 288)"/>
    <path id="prefix__패스_8011" fill="#01bdfd" d="M-1.778 0H6L3.778 7.778H-4z" data-name="패스 8011" transform="translate(129 206)"/>
    <path id="prefix__패스_8013" fill="#fe4170" d="M-1.778 0H6L3.778 7.778H-4z" data-name="패스 8013" transform="translate(203)"/>
    <path id="prefix__패스_8004" d="M-1.778 0H6L3.778 7.778H-4z" class="prefix__cls-4" data-name="패스 8004" transform="translate(1263 29)"/>
    <path id="prefix__패스_8005" d="M-1.778 0H6L3.778 7.778H-4z" class="prefix__cls-5" data-name="패스 8005" transform="translate(1308 98)"/>
    <path id="prefix__패스_8012" d="M-1.778 0H6L3.778 7.778H-4z" class="prefix__cls-5" data-name="패스 8012" transform="translate(52 76)"/>
    <path id="prefix__패스_8006" d="M-1.778 0H6L3.778 7.778H-4z" class="prefix__cls-6" data-name="패스 8006" transform="translate(1076 130)"/>
    <path id="prefix__패스_8010" d="M-1.778 0H6L3.778 7.778H-4z" class="prefix__cls-6" data-name="패스 8010" transform="translate(4 280)"/>
    <path id="prefix__패스_8007" fill="#f84041" d="M-1.778 0H6L3.778 7.778H-4z" data-name="패스 8007" transform="translate(1124 325.22)"/>
    <path id="prefix__패스_8008" d="M-1.778 0H6L3.778 7.778H-4z" class="prefix__cls-4" data-name="패스 8008" transform="translate(972 247)"/>
    <path id="prefix__패스_8009" fill="#1a9b9c" d="M-1.778 0H6L3.778 7.778H-4z" data-name="패스 8009" transform="translate(929 72)"/>
    <path id="prefix__패스_8001" d="M-1.778 0H6L3.778 7.778H-4z" class="prefix__cls-4" data-name="패스 8001" transform="translate(293 122)"/>
</svg>
