<svg xmlns="http://www.w3.org/2000/svg" id="prefix__main_bg_parttern_1" width="1318" height="599.998" viewBox="0 0 1318 599.998">
    <defs>
        <style>
            .prefix__cls-2{fill:#01bdfd}.prefix__cls-3{fill:#fe4170}.prefix__cls-4{fill:#cced0c}.prefix__cls-5{fill:#05b66b}.prefix__cls-6{fill:#7167ff}
        </style>
    </defs>
    <path id="prefix__패스_8000" fill="#fccf22" d="M-1.778 0H6L3.778 7.778H-4z" data-name="패스 8000" transform="translate(1085 39)"/>
    <path id="prefix__패스_8002" d="M-1.778 0H6L3.778 7.778H-4z" class="prefix__cls-2" data-name="패스 8002" transform="translate(1181)"/>
    <path id="prefix__패스_8011" d="M-1.778 0H6L3.778 7.778H-4z" class="prefix__cls-2" data-name="패스 8011" transform="translate(43 212)"/>
    <path id="prefix__패스_8003" d="M-1.778 0H6L3.778 7.778H-4z" class="prefix__cls-3" data-name="패스 8003" transform="translate(1108 90)"/>
    <path id="prefix__패스_8013" d="M-1.778 0H6L3.778 7.778H-4z" class="prefix__cls-3" data-name="패스 8013" transform="translate(4 152)"/>
    <path id="prefix__패스_8004" d="M-1.778 0H6L3.778 7.778H-4z" class="prefix__cls-4" data-name="패스 8004" transform="translate(1267 244)"/>
    <path id="prefix__패스_8005" d="M-1.778 0H6L3.778 7.778H-4z" class="prefix__cls-5" data-name="패스 8005" transform="translate(1312 313)"/>
    <path id="prefix__패스_8012" d="M-1.778 0H6L3.778 7.778H-4z" class="prefix__cls-5" data-name="패스 8012" transform="translate(80 72)"/>
    <path id="prefix__패스_8006" d="M-1.778 0H6L3.778 7.778H-4z" class="prefix__cls-6" data-name="패스 8006" transform="translate(1080 494)"/>
    <path id="prefix__패스_8010" d="M-1.778 0H6L3.778 7.778H-4z" class="prefix__cls-6" data-name="패스 8010" transform="translate(612 395)"/>
    <path id="prefix__패스_8007" fill="#f84041" d="M-1.778 0H6L3.778 7.778H-4z" data-name="패스 8007" transform="translate(1142 518)"/>
    <path id="prefix__패스_8008" d="M-1.778 0H6L3.778 7.778H-4z" class="prefix__cls-4" data-name="패스 8008" transform="translate(1070 558)"/>
    <path id="prefix__패스_8009" fill="#1a9b9c" d="M-1.778 0H6L3.778 7.778H-4z" data-name="패스 8009" transform="translate(851 592.22)"/>
    <path id="prefix__패스_8001" d="M-1.778 0H6L3.778 7.778H-4z" class="prefix__cls-4" data-name="패스 8001" transform="translate(1017 64)"/>
</svg>
