<svg xmlns="http://www.w3.org/2000/svg" id="prefix__main_bg_parttern_2" width="471" height="599.997" viewBox="0 0 471 599.997">
    <defs>
        <style>
            .prefix__cls-4{fill:#cced0c}
        </style>
    </defs>
    <path id="prefix__패스_8058" fill="#fccf22" d="M-1.778 0H6L3.778 7.778H-4z" data-name="패스 8058" transform="translate(238 39)"/>
    <path id="prefix__패스_8059" fill="#01bdfd" d="M-1.778 0H6L3.778 7.778H-4z" data-name="패스 8059" transform="translate(334)"/>
    <path id="prefix__패스_8060" fill="#fe4170" d="M-1.778 0H6L3.778 7.778H-4z" data-name="패스 8060" transform="translate(261 90)"/>
    <path id="prefix__패스_8061" d="M-1.778 0H6L3.778 7.778H-4z" class="prefix__cls-4" data-name="패스 8061" transform="translate(420 244)"/>
    <path id="prefix__패스_8062" fill="#05b66b" d="M-1.778 0H6L3.778 7.778H-4z" data-name="패스 8062" transform="translate(465 313)"/>
    <path id="prefix__패스_8063" fill="#7167ff" d="M-1.778 0H6L3.778 7.778H-4z" data-name="패스 8063" transform="translate(233 494)"/>
    <path id="prefix__패스_8065" fill="#f84041" d="M-1.778 0H6L3.778 7.778H-4z" data-name="패스 8065" transform="translate(295 518)"/>
    <path id="prefix__패스_8066" d="M-1.778 0H6L3.778 7.778H-4z" class="prefix__cls-4" data-name="패스 8066" transform="translate(223 558)"/>
    <path id="prefix__패스_8067" fill="#1a9b9c" d="M-1.778 0H6L3.778 7.778H-4z" data-name="패스 8067" transform="translate(4 592.22)"/>
    <path id="prefix__패스_8068" d="M-1.778 0H6L3.778 7.778H-4z" class="prefix__cls-4" data-name="패스 8068" transform="translate(170 64)"/>
</svg>
